<?xml version="1.0" encoding="utf-8"?>
<!-- Generator: Adobe Illustrator 23.0.1, SVG Export Plug-In . SVG Version: 6.00 Build 0)  -->
<svg version="1.1" id="Layer_1" xmlns="http://www.w3.org/2000/svg" xmlns:xlink="http://www.w3.org/1999/xlink" x="0px" y="0px"
	 viewBox="0 0 1920 918.6" style="enable-background:new 0 0 1920 918.6;" xml:space="preserve">
<style type="text/css">
	.st0{fill:#00B22D;}
	.st1{opacity:0.8;fill:#CECECE;}
	.st2{opacity:0.5;fill:#CECECE;}
	.st3{opacity:0.2;fill:#CECECE;}
	.st4{fill:#CECECE;}
</style>
<title>Asset 9</title>
<g>
	<g id="Layer_1-2">
		<path class="st0" d="M0,54.8v863.8h1920V177.2c-18.6-32.8-48.5-74.8-93-96.1c-94.1-45.2-145.3,53.4-279,59.3
			c-139.6,6.2-152.8-98.1-279-71.1c-90.5,19.4-110.9,78.9-198,71.1c-76.7-6.8-77.6-54.4-153-59.3c-99.8-6.5-129.4,74.7-207,47.4
			c-52.2-18.3-51.2-59.3-108-83c-63.1-26.3-90.6,13.3-171,23.7C277.9,89.2,218.1-35.3,81,10C43.5,22.4,15.4,42.4,0,54.8z"/>
	</g>
</g>
<path class="st1" d="M115.3,133c244.5-273.6,1657.8,834.3,2037.2,487.3c69.5-63.6,84.5-157.9,88.9-206.8
	c98.6,369.1,34.6,526.2-41,601.5c-153.6,153-381.9-4.7-950.1,0c-566.6,4.7-789.8,165.1-963.6,0C178.6,912.3,151.4,742.5,119,540.3
	C81.7,307.7,63.1,191.4,115.3,133z"/>
<path class="st2" d="M267,178.6c244.5-273.6,1657.8,834.3,2037.2,487.3c69.5-63.6,84.5-157.9,88.9-206.8
	c98.6,369.1,34.6,526.2-41,601.5c-153.6,153-381.9-4.7-950.1,0c-566.6,4.7-789.8,165.1-963.6,0c-108-102.6-135.2-272.5-167.6-474.7
	C233.4,353.3,214.8,237,267,178.6z"/>
<path class="st3" d="M453.9,244.3c244.5-273.6,1657.8,834.3,2037.2,487.3c69.5-63.6,84.5-157.9,88.9-206.8
	c98.6,369.1,34.6,526.2-41,601.5c-153.6,153-381.9-4.7-950.1,0c-566.6,4.7-789.8,165.1-963.6,0c-108-102.6-135.2-272.5-167.6-474.7
	C420.3,419,401.7,302.7,453.9,244.3z"/>
<path class="st4" d="M2041,967.6c-153.6,153-381.9-4.7-950.1,0c-566.6,4.7-789.8,165.1-963.6,0C19.3,865-7.9,695.2-40.3,492.9
	C-77.6,260.3-96.2,144-44,85.6C200.5-188,1613.8,919.9,1993.2,572.9c0.7-0.6-19.7,16,2.1-1.9"/>
</svg>
