<svg xmlns="http://www.w3.org/2000/svg" viewBox="0 0 186.13 210.04"><defs><style>.cls-1{fill:#00b22d;opacity:0.7;}.cls-2{fill:#ddd;}.cls-3{fill:#fff;opacity:0.74;}</style></defs><title>Asset 8</title><g id="Layer_2" data-name="Layer 2"><g id="Layer_1-2" data-name="Layer 1"><path class="cls-1" d="M3.66,95.27c17.72-59,99.39-96,144.27-68.31,46.16,28.53,54.73,126.4,2.1,165-34.37,25.25-95.55,25.73-128.58-9.73C-11.09,147.33,2.84,98,3.66,95.27Z"/><path class="cls-2" d="M143.53,50.42c28.91,36,32,95.44,1.77,119.58-38,30.35-126.64,3.37-141.47-52.26C-7.63,74.72,26.5,19.9,71.94,15.15,111.05,11.06,140,46,143.53,50.42Z"/><path class="cls-3" d="M145.81,28.53c20.58,28.22,21.14,74.11-2.16,92.23-29.28,22.78-94.83.52-104.31-42.61C32,44.79,59.15,3.08,93.27.16,122.65-2.35,143.28,25.06,145.81,28.53Z"/></g></g></svg>