<svg xmlns="http://www.w3.org/2000/svg" viewBox="0 0 1083.34 1730.11"><defs><style>.cls-1{fill:#cecece;opacity:0.35;}.cls-2{fill:#00b22d;opacity:0.8;}</style></defs><title>Asset 8</title><g id="Layer_2" data-name="Layer 2"><g id="Layer_1-2" data-name="Layer 1"><path class="cls-1" d="M0,1229.87V704.13A350.42,350.42,0,0,1,151.46,415.65C750.52,2.5,971.12-42.28,1044,26.22c92.42,86.86,4.07,409.2-81,594-96,208.63-277.31,333.53-243,526,15,83.9-51,27.25-63,81-41.59,186.6-370.91,416.36-567,230-21.6-20.54-49-54-68.91-107.6A345,345,0,0,1,0,1229.87Z"/><path class="cls-2" d="M0,1313.87V788.13A350.42,350.42,0,0,1,151.46,499.65C750.52,86.5,971.12,41.72,1044,110.22c92.42,86.86,4.07,409.2-81,594-96,208.63-331.31,294.53-297,487,15,83.9,30,99.25,18,153-41.59,186.6-397.91,383.36-594,197-21.6-20.54-49-54-68.91-107.6A345,345,0,0,1,0,1313.87Z"/><path class="cls-2" d="M0,1409.87V884.13A350.42,350.42,0,0,1,151.46,595.65C750.52,182.5,971.12,137.72,1044,206.22c92.42,86.86,4.07,409.2-81,594-96,208.63-232.31,338.5-198,531,15,83.9-60,130.28-72,184-41.59,186.6-406.91,308.36-603,122-21.6-20.54-49-54-68.91-107.6A345,345,0,0,1,0,1409.87Z"/></g></g></svg>