<svg xmlns="http://www.w3.org/2000/svg" viewBox="0 0 1501.77 1081.06"><defs><style>.cls-1,.cls-3{fill:#00b22d;}.cls-1{opacity:0.7;}.cls-2{fill:#cecece;opacity:0.35;}.cls-3{opacity:0.8;}</style></defs><title>Asset 18</title><g id="Layer_2" data-name="Layer 2"><g id="Layer_1-2" data-name="Layer 1"><path class="cls-1" d="M1420.84,383.2C1350.86,229.07,1185.15,8,975.22.2c-185.48-6.84-204.94,160.28-502.38,207-59.9,9.41-163.36,19-298,72C40.78,332,13.63,373.45,4.51,405.2c-22.43,78.06,45.34,162.28,59.6,180,131.5,163.42,343.08,96.76,647.15,153,444.59,82.24,581.76,333.79,709.58,242C1546.56,889.94,1509.33,578.07,1420.84,383.2Z"/><path class="cls-2" d="M1420.84,464.2c-70-154.13-235.69-375.24-445.62-383-185.48-6.84-204.94,160.28-502.38,207-59.9,9.41-163.36,19-298,72C40.78,413,13.63,454.45,4.51,486.2c-22.43,78.06,45.34,162.28,59.6,180,131.5,163.42,343.08,96.76,647.15,153,444.59,82.24,581.76,333.79,709.58,242C1546.56,970.94,1509.33,659.07,1420.84,464.2Z"/><path class="cls-3" d="M1420.84,434.2c-70-154.13-235.69-375.24-445.62-383-185.48-6.84-204.94,160.28-502.38,207-59.9,9.41-163.36,19-298,72C40.78,383,13.63,424.45,4.51,456.2c-22.43,78.06,45.34,162.28,59.6,180,131.5,163.42,343.08,96.76,647.15,153,444.59,82.24,581.76,333.79,709.58,242C1546.56,940.94,1509.33,629.07,1420.84,434.2Z"/></g></g></svg>