<svg xmlns="http://www.w3.org/2000/svg" viewBox="0 0 1163.99 518.94"><defs><style>.cls-1,.cls-3{fill:#00b22d;}.cls-1{opacity:0.72;}.cls-2{fill:#fff;opacity:0.5;}.cls-3{opacity:0.7;}</style></defs><title>Asset 6</title><g id="Layer_2" data-name="Layer 2"><g id="Layer_1-2" data-name="Layer 1"><path class="cls-1" d="M242.77,0h774.74C1098.41,0,1164,69,1164,154V298c0,122-128.32,195.2-226,129.27-117.64-79.45-221-108.6-304.7-117-169.85-17-273,50.37-436.5-10q-2.43-.88-4.85-1.82C38.36,239.78,79.31,0,242.77,0Z"/><path class="cls-2" d="M170.61,0h846.9C1098.41,0,1164,69,1164,154V364.59c0,125.86-135.86,198.71-232.6,124.59-114.89-88-216-120.68-298-130.15-169.85-19.62-273,58.27-436.5-11.59-43-18.39-82.13-43.55-117.56-73C-29.46,184.12,32,0,170.61,0Z"/><path class="cls-3" d="M147,1h870.55C1098.41,1,1164,70,1164,155V299.21c0,165-172.44,266.07-305.64,178.9-85-55.6-160.8-79.05-225-87.1-169.85-21.3-273,63.3-436.5-12.58C138.22,351.21,86.89,310.34,42.2,262.69-48.87,165.59,17.27,1,147,1Z"/></g></g></svg>