<svg xmlns="http://www.w3.org/2000/svg" viewBox="0 0 1204.01 1072"><defs><style>.cls-1,.cls-3{fill:#00b22d;}.cls-1{opacity:0.72;}.cls-2,.cls-5{fill:#fff;}.cls-2{opacity:0.5;}.cls-3{opacity:0.7;}.cls-4{fill:#ddd;}.cls-5{opacity:0.74;}</style></defs><title>Asset 17</title><g id="Layer_2" data-name="Layer 2"><g id="Layer_1-2" data-name="Layer 1"><path class="cls-1" d="M952.89,0H151.51C67.83,0,0,69,0,154V298c0,122,132.73,195.2,233.71,129.27,121.69-79.45,228.64-108.6,315.18-117,175.7-17,282.45,50.37,451.51-10q2.52-.88,5-1.82C1164.33,239.78,1122,0,952.89,0Z"/><path class="cls-2" d="M1027.54,0h-876C67.83,0,0,69,0,154V364.59C0,490.45,140.53,563.3,240.59,489.18,359.43,401.14,464,368.5,548.89,359c175.7-19.62,282.45,58.27,451.51-11.59,44.51-18.39,84.95-43.55,121.6-73C1234.48,184.12,1170.88,0,1027.54,0Z"/><path class="cls-3" d="M1052,1H151.51C67.83,1,0,70,0,155V299.21c0,165,178.36,266.07,316.15,178.9C404,422.51,482.48,399.06,548.89,391c175.7-21.3,282.45,63.3,451.51-12.58,60.63-27.22,113.73-68.09,160-115.74C1254.56,165.59,1186.15,1,1052,1Z"/><path class="cls-4" d="M743,523.44c153,80,252.49,279.23,185.13,407.19-84.68,160.88-429,201.18-563.09,32.75C261.25,833.1,296.16,594.09,444.75,509.76,572.66,437.17,724.15,513.6,743,523.44Z"/><path class="cls-5" d="M718,445C830.76,510.9,901.41,667.34,848.7,764.32c-66.26,121.94-324.25,143.82-421.31,10.2-75.07-103.36-44.54-286.95,68.05-348.07C592.35,373.84,704.11,436.91,718,445Z"/></g></g></svg>