<svg xmlns="http://www.w3.org/2000/svg" viewBox="0 0 1920.03 1211"><defs><style>.cls-1{fill:#cecece;}</style></defs><title>Asset 8</title><g id="Layer_2" data-name="Layer 2"><g id="Layer_1-2" data-name="Layer 1"><path class="cls-1" d="M1920,0q0,362.48,0,725c0,19.61-9.94,35.55-22.29,35.74l-1875,27.92c-6.25.09-11.93-3.87-16-10.35C.25,768.13-.15,757,0,752.88c.89-20.67.42-104.71,0-220.72V294c15.29,28.81,57.68,99.2,144,143,20,10.16,123.61,62.72,228,26.55,95.51-33.08,121.39-100.73,222.66-119.7,16.24-3.05,34.62-1.83,56.34,5.64C741.52,380.59,761.9,476,849,463.55c76.67-10.94,77.57-87.18,153-95.05,99.79-10.41,129.37,119.77,207,76,52.16-29.38,51.18-95.11,108-133.07,63.08-42.13,90.58,21.32,171,38,115.85,24.06,264.69-86.59,292-111.08C1875.39,152.75,1908.27,48.31,1920,0Z"/><path class="cls-1" d="M1920,1105.65V724.45c0-19.61-9.94-35.55-22.29-35.74l-1875-27.92C10.23,660.6,0,676.66,0,696.52Q0,806.89,0,917.25a52.42,52.42,0,0,0,3,17.83c18.71,51.23,47.79,113.33,90,145.83,94.13,72.42,145.29-85.57,279-95.05,139.6-9.89,152.83,157.43,279,114.06,90.49-31.1,110.87-126.5,198-114.06,76.67,10.94,77.57,87.18,153,95.05,99.79,10.41,129.37-119.77,207-76,52.16,29.38,51.18,95.11,108,133.07,63.08,42.13,90.58-21.32,171-38,154.15-32,213.9,167.71,351,95,31-16.44,55.61-41.31,71.91-60.62C1916.66,1127.59,1920,1117,1920,1105.65Z"/></g></g></svg>