<svg xmlns="http://www.w3.org/2000/svg" viewBox="0 0 269.36 269.36"><defs><style>.cls-1{opacity:0.5;}.cls-2{fill:#fff;}.cls-3{fill:#00b22d;}</style></defs><title>Asset 4</title><g id="Layer_2" data-name="Layer 2"><g id="Layer_1-2" data-name="Layer 1"><g class="cls-1"><circle class="cls-2" cx="134.68" cy="134.68" r="134.68"/><path class="cls-2" d="M208.88,127.12a8.73,8.73,0,0,1,0,15.12l-51.13,29.52-51.13,29.52a8.73,8.73,0,0,1-13.09-7.56V75.64a8.73,8.73,0,0,1,13.09-7.56L157.75,97.6Z"/></g><circle class="cls-3" cx="136.68" cy="134.68" r="36"/><path class="cls-2" d="M156.51,132.66a2.33,2.33,0,0,1,0,4l-13.66,7.89-13.67,7.89a2.33,2.33,0,0,1-3.5-2V118.9a2.33,2.33,0,0,1,3.5-2l13.67,7.89Z"/></g></g></svg>